<?xml version="1.0" encoding="utf-8"?>
<!-- Generator: Adobe Illustrator 22.0.1, SVG Export Plug-In . SVG Version: 6.00 Build 0)  -->
<svg version="1.1" id="Layer_1_xA0_Image_1_" xmlns="http://www.w3.org/2000/svg" xmlns:xlink="http://www.w3.org/1999/xlink"
	 x="0px" y="0px" viewBox="0 0 1308 771.8" style="enable-background:new 0 0 1308 771.8;" xml:space="preserve"> <g>
	<g>
  <polygon points="0.165 0.076, 0.192 0.075, 0.218 0.076, 0.239 0.079, 0.264 0.077, 0.284 0.073, 0.314 0.070, 0.347 0.079, 0.380 0.086, 0.433 0.086, 0.471 0.082, 0.484 0.081, 0.512 0.078, 0.527 0.075, 0.552 0.070, 0.584 0.060, 0.645 0.040, 0.699 0.022, 0.735 0.010, 0.776 0.008, 0.809 0.014, 0.839 0.020, 0.854 0.022, 0.884 0.032, 0.907 0.042, 0.918 0.050, 0.931 0.068, 0.942 0.097, 0.945 0.149, 0.937 0.181, 0.934 0.189, 0.937 0.220, 0.946 0.234, 0.962 0.260, 0.976 0.285, 0.980 0.297, 0.987 0.354, 0.992 0.407, 0.994 0.442, 0.993 0.485, 0.985 0.542, 0.981 0.561, 0.977 0.579, 0.976 0.590, 0.967 0.645, 0.959 0.665, 0.947 0.690, 0.927 0.708, 0.916 0.710, 0.890 0.727, 0.882 0.743, 0.877 0.772, 0.870 0.818, 0.866 0.834, 0.846 0.866, 0.817 0.883, 0.776 0.896, 0.742 0.901, 0.718 0.907, 0.694 0.915, 0.682 0.916, 0.655 0.916, 0.628 0.916, 0.618 0.914, 0.599 0.911, 0.586 0.909, 0.562 0.910, 0.558 0.910, 0.541 0.924, 0.536 0.932, 0.513 0.955, 0.511 0.955, 0.500 0.961, 0.486 0.969, 0.440 0.987, 0.406 0.995, 0.380 0.993, 0.369 0.992, 0.337 0.979, 0.311 0.961, 0.281 0.945, 0.243 0.945, 0.209 0.954, 0.184 0.960, 0.133 0.964, 0.106 0.958, 0.086 0.949, 0.070 0.930, 0.066 0.924, 0.065 0.923, 0.059 0.912, 0.057 0.909, 0.051 0.900, 0.042 0.885, 0.038 0.877, 0.036 0.873, 0.029 0.863, 0.027 0.859, 0.024 0.853, 0.021 0.839, 0.018 0.827, 0.015 0.814, 0.009 0.758, 0.017 0.714, 0.024 0.703, 0.030 0.695, 0.042 0.669, 0.053 0.627, 0.066 0.603, 0.072 0.598, 0.079 0.575, 0.078 0.552, 0.073 0.498, 0.071 0.462, 0.073 0.432, 0.073 0.392, 0.068 0.371, 0.058 0.343, 0.054 0.331, 0.048 0.296, 0.045 0.255, 0.043 0.240, 0.041 0.213, 0.045 0.185, 0.053 0.149, 0.055 0.143, 0.066 0.119, 0.075 0.108, 0.081 0.099, 0.087 0.091, 0.095 0.084, 0.114 0.080, 0.154 0.077, 0.165 0.076, 0.165 0.076"/>
		<!-- <path d="M216,58.6c11.7-0.3,23.3-0.7,35-1c11.5-0.3,23,0.1,34.5,1c9.1,0.8,18.2,1.6,27.2,2.2c10.9,0.8,21.8,0.2,32.6-1
			c8.9-1,17.7-2.6,26.6-3.8c12.9-1.8,25.7-2.5,38.8-1.8c14.4,0.9,28.6,3.3,42.6,6.8c14.3,3.6,28.9,5.4,43.7,5.3
			c23-0.3,46.1-0.2,69.1-0.2c16.6,0,33.2-1.1,49.8-2.5c5.7-0.5,11.5-0.8,17.2-1.1c12.3-0.7,24.6-1.3,36.9-2.2
			c6.5-0.5,13.1-1.3,19.6-2.1c10.8-1.4,21.6-2.7,32.3-4.4c13.9-2.2,27.8-4.6,41.6-7.3c26.8-5.1,53.7-10.5,80.5-15.8
			c23.4-4.6,46.7-9.4,70.1-13.9c15.7-3.1,31.4-6.1,47.2-8.7c17.7-3,35.6-3.5,53.6-1.7c14.3,1.4,28.7,2.8,43,4.3
			c13.2,1.4,26.4,2.9,39.6,4.4c6.4,0.7,12.7,1.3,19.1,2c13.4,1.5,26.5,4.1,39.6,7.3c10.1,2.5,20.1,5.2,30.1,8.2
			c4.9,1.5,9.6,3.6,14.2,5.8c6.7,3.3,12.3,8,16.8,14c5.5,7.3,10.7,14.8,15.1,22.8c7,12.8,7.9,26.1,3.7,39.9
			c-2.6,8.6-6.5,16.7-10.9,24.5c-1.2,2.1-2.5,4.1-3.5,6.3c-4.6,9.5-3.6,16.5,3.8,24.1c3.6,3.7,7.4,7.1,11.3,10.4
			c7.5,6.5,15.1,12.9,21.9,20.1c6,6.4,11.9,13,17.9,19.4c2.6,2.8,4.3,6,5.2,9.6c3.8,14.5,7.6,29.1,9.7,44
			c1.9,13.5,4.2,26.9,6.1,40.3c1.3,9,2.4,18.1,3.2,27.2c1,11.2,0,22.4-1.9,33.5c-2.6,14.8-5.8,29.5-10.4,43.8
			c-1.6,4.9-3.5,9.6-5.4,14.4c-1.8,4.6-3.6,9.2-5.4,13.8c-1.1,2.9-1.7,5.8-1.6,8.9c0.9,15.2-3.2,29.2-10.8,42.1
			c-3.2,5.5-6.8,10.8-10.8,15.9c-5.1,6.5-10.7,12.8-16.1,19c-6.8,7.8-15.5,12.2-25.6,13.9c-4.7,0.8-9.5,1.1-14.3,1.8
			c-12.4,1.8-23.7,6.5-34.2,13.2c-4.8,3.1-8.4,7.4-11,12.5c-3.5,6.9-5.3,14.4-6.1,22.1c-1.3,12.3-4,24.3-8.6,35.8
			c-1.6,4-3.5,7.9-5.6,11.6c-6.3,11.2-15.4,19.5-26.9,25.2c-11.8,5.8-24.3,9.9-37,13.1c-17.9,4.4-36,7.6-54.2,9.9
			c-14.9,1.9-29.9,3.3-44.9,4.2c-10.4,0.6-20.6,2.5-30.8,4.7c-10.5,2.2-20.9,4.6-31.6,5.7c-5.2,0.5-10.5,0.9-15.8,0.9
			c-11.5,0.1-23-0.1-34.6-0.1c-11.8-0.1-23.7,0-35.5-0.2c-4.6-0.1-9.2-0.8-13.8-1.3c-8.1-0.8-16.2-1.8-24.3-2.6
			c-5.6-0.5-11.2-0.8-16.8-1.1c-10.6-0.6-21.1,0.1-31.7,0.5c-1.6,0.1-3.2,0.2-4.8,0.3c-9.1,0.3-16.7,3.7-23,10.3
			c-2.2,2.3-4.5,4.6-6.8,6.7c-8.6,7.8-18.3,14-29.6,17.2c-0.9,0.3-1.8,0.6-2.8,0.7c-4.9,0.9-9.4,2.9-14.1,4.6
			c-6.1,2.2-12.5,4-18.8,5.7c-19.9,5.3-40,10.2-60.2,14.2c-14.6,2.9-29.3,5.4-44.2,6.1c-11.2,0.6-22.4,0.2-33.5-1.3
			c-4.9-0.7-9.9-1-14.8-1.2c-14.5-0.7-28.5-4-41.9-9.6c-11.2-4.6-22.5-9.2-33.6-14.2c-12.6-5.6-25.6-9.9-39.2-12.4
			c-16.5-3.1-33-3.2-49.6-0.1c-14.8,2.8-29.6,5-44.5,7.2c-11.1,1.7-22.2,3.1-33.3,4.3c-22.1,2.4-44.3,4.3-66.6,3.4
			c-11.7-0.5-23.2-2.3-34.6-5c-8.9-2.1-17.7-4.4-26.6-6.3c-9.5-2-16.8-6.9-21.5-15.4c-1.2-2.1-2.6-3.5-4.8-4.4
			c-0.4-0.2-0.8-0.5-1.3-0.6c-4-1.5-6.9-4.1-8-8.3c-0.4-1.4-1.3-2.1-2.6-2.6c-3.3-1.4-5.6-4-8.1-6.6c-3.7-3.9-7.5-7.8-11.2-11.7
			c-2-2.1-4.3-3.7-5.5-6.5c-0.6-1.4-1.7-2.2-3.1-2.8c-3.7-1.5-6.5-3.9-8.3-7.6c-0.7-1.4-2.1-2.4-3.1-3.7c-1.2-1.5-2.6-2.9-3.4-4.6
			c-1.7-3.4-3.1-7-4.6-10.5c-1.3-3.1-2.5-6.2-3.9-9.3c-1.5-3.2-2.4-6.6-3.1-10.1c-2.7-14.3-5.6-28.6-8.1-42.9
			c-2.3-12.9,1-24.5,9.8-34.3c2.8-3.1,6-5.7,9.2-8.4c2.6-2.2,5.4-4,8.1-6.1c7.1-5.3,12.2-12.2,15.4-20.4c4.4-11,9.5-21.6,14.7-32.3
			c3.9-8.1,9.8-14.2,17.5-18.5c2.4-1.3,4.8-2.6,7.2-3.8c7.3-3.6,10.7-9.3,9.7-17.5c-0.7-5.9-1.4-11.7-2.2-17.6
			c-1.8-14-3.7-27.9-5.5-41.9c-1.2-9.4-2.2-18.7-3.2-28.1c-0.8-7.7-0.1-15.3,2.5-22.7c3.6-10.4,3.4-20.7,0.2-31.1
			c-1.8-5.7-4.1-11.1-6.9-16.3c-3.9-7.1-8-14.2-12.1-21.3c-1.8-3.2-3.6-6.4-5.6-9.5c-5.5-8.2-7.6-17.5-8.5-27.2
			c-1-10.5-1.7-21-3.7-31.4c-0.7-3.8-1.6-7.5-2.5-11.2c-1.7-6.9-2.7-13.8-2.6-20.9c0.1-7.7,1.6-15,5.1-21.8
			c4.6-8.8,8-18.1,11.1-27.6c0.5-1.7,1.1-3.4,1.7-5c2.8-7.8,7.3-14.1,14.3-18.7c4.3-2.8,8.6-5.6,12.7-8.6c2.8-2.1,5.4-4.5,8.1-6.8
			c2.3-2,4.5-4.1,6.9-5.9c3.2-2.5,6.8-4.1,10.7-5.1c8.2-2.2,16.6-3.3,25.1-3.7c17.6-0.8,35.2-1.5,52.7-2.3
			C206.4,59,211.2,58.8,216,58.6C216,58.6,216,58.6,216,58.6z"/> -->
	</g>
</g>
</svg>
