<?xml version="1.0" encoding="utf-8"?>
<!-- Generator: Adobe Illustrator 22.0.1, SVG Export Plug-In . SVG Version: 6.00 Build 0)  -->
<svg version="1.1" id="Layer_1_xA0_Image_1_" xmlns="http://www.w3.org/2000/svg" xmlns:xlink="http://www.w3.org/1999/xlink"
	 x="0px" y="0px" viewBox="0 0 1308 771.8" style="enable-background:new 0 0 1308 771.8;" xml:space="preserve">
<style type="text/css">
	.st0{fill:#FFFFFF;}
</style>
<g>
	<g>
		<path class="st0" d="M2.7,770.9c0-255.9,0-511.9,0-767.9c434.8,0,869.7,0,1304.6,0c0,256,0,512,0,767.9
			C872.4,770.9,437.6,770.9,2.7,770.9z M216,58.6C216,58.6,216,58.6,216,58.6c-4.8,0.1-9.6,0.4-14.4,0.6
			c-17.6,0.8-35.2,1.5-52.7,2.3c-8.5,0.4-16.9,1.5-25.1,3.7c-3.9,1.1-7.6,2.7-10.7,5.1c-2.4,1.9-4.6,3.9-6.9,5.9
			c-2.7,2.3-5.2,4.7-8.1,6.8c-4.1,3-8.4,5.8-12.7,8.6c-6.9,4.6-11.5,11-14.3,18.7c-0.6,1.7-1.1,3.3-1.7,5
			c-3.1,9.4-6.5,18.7-11.1,27.6c-3.5,6.8-5,14.1-5.1,21.8c-0.1,7.1,0.9,14,2.6,20.9c0.9,3.7,1.8,7.5,2.5,11.2
			c2,10.4,2.8,20.9,3.7,31.4c0.9,9.7,3,18.9,8.5,27.2c2,3.1,3.8,6.3,5.6,9.5c4,7.1,8.1,14.1,12.1,21.3c2.9,5.2,5.2,10.6,6.9,16.3
			c3.2,10.4,3.4,20.7-0.2,31.1c-2.6,7.4-3.3,15-2.5,22.7c1,9.4,2,18.8,3.2,28.1c1.7,14,3.7,27.9,5.5,41.9c0.8,5.9,1.5,11.7,2.2,17.6
			c1,8.2-2.3,13.9-9.7,17.5c-2.4,1.2-4.8,2.5-7.2,3.8c-7.8,4.3-13.6,10.4-17.5,18.5c-5.1,10.7-10.3,21.3-14.7,32.3
			c-3.3,8.2-8.3,15.1-15.4,20.4c-2.7,2-5.5,3.9-8.1,6.1c-3.2,2.7-6.4,5.3-9.2,8.4c-8.8,9.8-12,21.3-9.8,34.3
			c2.5,14.3,5.4,28.6,8.1,42.9c0.7,3.5,1.6,6.8,3.1,10.1c1.4,3,2.6,6.2,3.9,9.3c1.5,3.5,2.9,7.1,4.6,10.5c0.8,1.7,2.2,3.1,3.4,4.6
			c1,1.2,2.4,2.3,3.1,3.7c1.8,3.7,4.6,6.1,8.3,7.6c1.4,0.6,2.5,1.4,3.1,2.8c1.2,2.7,3.5,4.4,5.5,6.5c3.7,3.9,7.5,7.8,11.2,11.7
			c2.5,2.6,4.7,5.2,8.1,6.6c1.2,0.5,2.2,1.2,2.6,2.6c1.2,4.2,4,6.8,8,8.3c0.4,0.2,0.8,0.5,1.3,0.6c2.2,0.9,3.6,2.4,4.8,4.4
			c4.8,8.4,12.1,13.3,21.5,15.4c8.9,1.9,17.7,4.2,26.6,6.3c11.4,2.8,22.9,4.6,34.6,5c22.3,0.9,44.4-1,66.6-3.4
			c11.1-1.2,22.2-2.6,33.3-4.3c14.9-2.2,29.7-4.5,44.5-7.2c16.6-3.1,33.1-3,49.6,0.1c13.6,2.5,26.6,6.8,39.2,12.4
			c11.1,5,22.4,9.5,33.6,14.2c13.4,5.6,27.3,8.9,41.9,9.6c4.9,0.2,9.9,0.6,14.8,1.2c11.1,1.5,22.3,1.9,33.5,1.3
			c14.9-0.7,29.6-3.2,44.2-6.1c20.2-4,40.3-8.9,60.2-14.2c6.3-1.7,12.7-3.4,18.8-5.7c4.7-1.7,9.2-3.6,14.1-4.6
			c0.9-0.2,1.9-0.5,2.8-0.7c11.3-3.3,20.9-9.4,29.6-17.2c2.4-2.1,4.6-4.4,6.8-6.7c6.3-6.6,13.9-10,23-10.3c1.6-0.1,3.2-0.2,4.8-0.3
			c10.5-0.5,21.1-1.2,31.7-0.5c5.6,0.3,11.2,0.6,16.8,1.1c8.1,0.8,16.2,1.7,24.3,2.6c4.6,0.5,9.2,1.2,13.8,1.3
			c11.8,0.2,23.7,0.1,35.5,0.2c11.5,0,23,0.2,34.6,0.1c5.3,0,10.5-0.4,15.8-0.9c10.7-1.1,21.1-3.5,31.6-5.7
			c10.2-2.1,20.4-4,30.8-4.7c15-0.9,30-2.3,44.9-4.2c18.3-2.4,36.4-5.6,54.2-9.9c12.8-3.1,25.2-7.2,37-13.1
			c11.5-5.7,20.6-14,26.9-25.2c2.1-3.7,4-7.6,5.6-11.6c4.6-11.5,7.2-23.5,8.6-35.8c0.8-7.7,2.6-15.1,6.1-22.1
			c2.6-5.1,6.1-9.4,11-12.5c10.5-6.7,21.8-11.4,34.2-13.2c4.7-0.7,9.5-1,14.3-1.8c10.1-1.7,18.8-6.2,25.6-13.9
			c5.5-6.3,11-12.5,16.1-19c3.9-5,7.5-10.4,10.8-15.9c7.6-13,11.6-27,10.8-42.1c-0.2-3.1,0.5-6,1.6-8.9c1.8-4.6,3.6-9.2,5.4-13.8
			c1.8-4.8,3.8-9.5,5.4-14.4c4.6-14.3,7.8-29,10.4-43.8c2-11.1,2.9-22.2,1.9-33.5c-0.8-9.1-1.9-18.1-3.2-27.2
			c-1.9-13.5-4.2-26.9-6.1-40.3c-2.1-14.9-5.9-29.5-9.7-44c-1-3.6-2.7-6.8-5.2-9.6c-6-6.5-11.8-13-17.9-19.4
			c-6.8-7.2-14.4-13.6-21.9-20.1c-3.9-3.3-7.7-6.7-11.3-10.4c-7.3-7.5-8.3-14.6-3.8-24.1c1-2.2,2.3-4.2,3.5-6.3
			c4.5-7.8,8.3-15.9,10.9-24.5c4.2-13.8,3.3-27.1-3.7-39.9c-4.4-8-9.6-15.5-15.1-22.8c-4.5-6-10.1-10.7-16.8-14
			c-4.6-2.2-9.3-4.3-14.2-5.8c-9.9-3-20-5.7-30.1-8.2c-13-3.2-26.2-5.8-39.6-7.3c-6.4-0.7-12.7-1.3-19.1-2
			c-13.2-1.4-26.4-3-39.6-4.4c-14.3-1.5-28.6-2.8-43-4.3c-17.9-1.8-35.8-1.2-53.6,1.7c-15.8,2.6-31.5,5.7-47.2,8.7
			c-23.4,4.5-46.7,9.3-70.1,13.9c-26.8,5.3-53.6,10.7-80.5,15.8c-13.8,2.6-27.7,5-41.6,7.3c-10.7,1.7-21.5,3.1-32.3,4.4
			c-6.5,0.8-13,1.6-19.6,2.1c-12.3,0.9-24.6,1.5-36.9,2.2c-5.7,0.3-11.5,0.7-17.2,1.1c-16.6,1.4-33.2,2.4-49.8,2.5
			c-23,0-46.1-0.1-69.1,0.2c-14.8,0.2-29.4-1.7-43.7-5.3c-14-3.5-28.1-5.9-42.6-6.8c-13-0.8-25.9-0.1-38.8,1.8
			c-8.9,1.3-17.7,2.9-26.6,3.8c-10.8,1.2-21.7,1.7-32.6,1c-9.1-0.7-18.2-1.5-27.2-2.2c-11.5-1-23-1.3-34.5-1
			C239.3,57.9,227.7,58.3,216,58.6z"/>
		<path d="M216,58.6c11.7-0.3,23.3-0.7,35-1c11.5-0.3,23,0.1,34.5,1c9.1,0.8,18.2,1.6,27.2,2.2c10.9,0.8,21.8,0.2,32.6-1
			c8.9-1,17.7-2.6,26.6-3.8c12.9-1.8,25.7-2.5,38.8-1.8c14.4,0.9,28.6,3.3,42.6,6.8c14.3,3.6,28.9,5.4,43.7,5.3
			c23-0.3,46.1-0.2,69.1-0.2c16.6,0,33.2-1.1,49.8-2.5c5.7-0.5,11.5-0.8,17.2-1.1c12.3-0.7,24.6-1.3,36.9-2.2
			c6.5-0.5,13.1-1.3,19.6-2.1c10.8-1.4,21.6-2.7,32.3-4.4c13.9-2.2,27.8-4.6,41.6-7.3c26.8-5.1,53.7-10.5,80.5-15.8
			c23.4-4.6,46.7-9.4,70.1-13.9c15.7-3.1,31.4-6.1,47.2-8.7c17.7-3,35.6-3.5,53.6-1.7c14.3,1.4,28.7,2.8,43,4.3
			c13.2,1.4,26.4,2.9,39.6,4.4c6.4,0.7,12.7,1.3,19.1,2c13.4,1.5,26.5,4.1,39.6,7.3c10.1,2.5,20.1,5.2,30.1,8.2
			c4.9,1.5,9.6,3.6,14.2,5.8c6.7,3.3,12.3,8,16.8,14c5.5,7.3,10.7,14.8,15.1,22.8c7,12.8,7.9,26.1,3.7,39.9
			c-2.6,8.6-6.5,16.7-10.9,24.5c-1.2,2.1-2.5,4.1-3.5,6.3c-4.6,9.5-3.6,16.5,3.8,24.1c3.6,3.7,7.4,7.1,11.3,10.4
			c7.5,6.5,15.1,12.9,21.9,20.1c6,6.4,11.9,13,17.9,19.4c2.6,2.8,4.3,6,5.2,9.6c3.8,14.5,7.6,29.1,9.7,44
			c1.9,13.5,4.2,26.9,6.1,40.3c1.3,9,2.4,18.1,3.2,27.2c1,11.2,0,22.4-1.9,33.5c-2.6,14.8-5.8,29.5-10.4,43.8
			c-1.6,4.9-3.5,9.6-5.4,14.4c-1.8,4.6-3.6,9.2-5.4,13.8c-1.1,2.9-1.7,5.8-1.6,8.9c0.9,15.2-3.2,29.2-10.8,42.1
			c-3.2,5.5-6.8,10.8-10.8,15.9c-5.1,6.5-10.7,12.8-16.1,19c-6.8,7.8-15.5,12.2-25.6,13.9c-4.7,0.8-9.5,1.1-14.3,1.8
			c-12.4,1.8-23.7,6.5-34.2,13.2c-4.8,3.1-8.4,7.4-11,12.5c-3.5,6.9-5.3,14.4-6.1,22.1c-1.3,12.3-4,24.3-8.6,35.8
			c-1.6,4-3.5,7.9-5.6,11.6c-6.3,11.2-15.4,19.5-26.9,25.2c-11.8,5.8-24.3,9.9-37,13.1c-17.9,4.4-36,7.6-54.2,9.9
			c-14.9,1.9-29.9,3.3-44.9,4.2c-10.4,0.6-20.6,2.5-30.8,4.7c-10.5,2.2-20.9,4.6-31.6,5.7c-5.2,0.5-10.5,0.9-15.8,0.9
			c-11.5,0.1-23-0.1-34.6-0.1c-11.8-0.1-23.7,0-35.5-0.2c-4.6-0.1-9.2-0.8-13.8-1.3c-8.1-0.8-16.2-1.8-24.3-2.6
			c-5.6-0.5-11.2-0.8-16.8-1.1c-10.6-0.6-21.1,0.1-31.7,0.5c-1.6,0.1-3.2,0.2-4.8,0.3c-9.1,0.3-16.7,3.7-23,10.3
			c-2.2,2.3-4.5,4.6-6.8,6.7c-8.6,7.8-18.3,14-29.6,17.2c-0.9,0.3-1.8,0.6-2.8,0.7c-4.9,0.9-9.4,2.9-14.1,4.6
			c-6.1,2.2-12.5,4-18.8,5.7c-19.9,5.3-40,10.2-60.2,14.2c-14.6,2.9-29.3,5.4-44.2,6.1c-11.2,0.6-22.4,0.2-33.5-1.3
			c-4.9-0.7-9.9-1-14.8-1.2c-14.5-0.7-28.5-4-41.9-9.6c-11.2-4.6-22.5-9.2-33.6-14.2c-12.6-5.6-25.6-9.9-39.2-12.4
			c-16.5-3.1-33-3.2-49.6-0.1c-14.8,2.8-29.6,5-44.5,7.2c-11.1,1.7-22.2,3.1-33.3,4.3c-22.1,2.4-44.3,4.3-66.6,3.4
			c-11.7-0.5-23.2-2.3-34.6-5c-8.9-2.1-17.7-4.4-26.6-6.3c-9.5-2-16.8-6.9-21.5-15.4c-1.2-2.1-2.6-3.5-4.8-4.4
			c-0.4-0.2-0.8-0.5-1.3-0.6c-4-1.5-6.9-4.1-8-8.3c-0.4-1.4-1.3-2.1-2.6-2.6c-3.3-1.4-5.6-4-8.1-6.6c-3.7-3.9-7.5-7.8-11.2-11.7
			c-2-2.1-4.3-3.7-5.5-6.5c-0.6-1.4-1.7-2.2-3.1-2.8c-3.7-1.5-6.5-3.9-8.3-7.6c-0.7-1.4-2.1-2.4-3.1-3.7c-1.2-1.5-2.6-2.9-3.4-4.6
			c-1.7-3.4-3.1-7-4.6-10.5c-1.3-3.1-2.5-6.2-3.9-9.3c-1.5-3.2-2.4-6.6-3.1-10.1c-2.7-14.3-5.6-28.6-8.1-42.9
			c-2.3-12.9,1-24.5,9.8-34.3c2.8-3.1,6-5.7,9.2-8.4c2.6-2.2,5.4-4,8.1-6.1c7.1-5.3,12.2-12.2,15.4-20.4c4.4-11,9.5-21.6,14.7-32.3
			c3.9-8.1,9.8-14.2,17.5-18.5c2.4-1.3,4.8-2.6,7.2-3.8c7.3-3.6,10.7-9.3,9.7-17.5c-0.7-5.9-1.4-11.7-2.2-17.6
			c-1.8-14-3.7-27.9-5.5-41.9c-1.2-9.4-2.2-18.7-3.2-28.1c-0.8-7.7-0.1-15.3,2.5-22.7c3.6-10.4,3.4-20.7,0.2-31.1
			c-1.8-5.7-4.1-11.1-6.9-16.3c-3.9-7.1-8-14.2-12.1-21.3c-1.8-3.2-3.6-6.4-5.6-9.5c-5.5-8.2-7.6-17.5-8.5-27.2
			c-1-10.5-1.7-21-3.7-31.4c-0.7-3.8-1.6-7.5-2.5-11.2c-1.7-6.9-2.7-13.8-2.6-20.9c0.1-7.7,1.6-15,5.1-21.8
			c4.6-8.8,8-18.1,11.1-27.6c0.5-1.7,1.1-3.4,1.7-5c2.8-7.8,7.3-14.1,14.3-18.7c4.3-2.8,8.6-5.6,12.7-8.6c2.8-2.1,5.4-4.5,8.1-6.8
			c2.3-2,4.5-4.1,6.9-5.9c3.2-2.5,6.8-4.1,10.7-5.1c8.2-2.2,16.6-3.3,25.1-3.7c17.6-0.8,35.2-1.5,52.7-2.3
			C206.4,59,211.2,58.8,216,58.6C216,58.6,216,58.6,216,58.6z"/>
	</g>
</g>
</svg>
