<?xml version="1.0" encoding="utf-8"?>
<!-- Generator: Adobe Illustrator 22.0.1, SVG Export Plug-In . SVG Version: 6.00 Build 0)  -->
<svg version="1.1" id="Layer_1" xmlns="http://www.w3.org/2000/svg" xmlns:xlink="http://www.w3.org/1999/xlink" x="0px" y="0px"
	 viewBox="0 0 84.5 72.5" style="enable-background:new 0 0 84.5 72.5;" xml:space="preserve">
<style type="text/css">
	.st0{fill:#FEFEFE;}
	.st1{fill:#2A2A2A;}
	.st2{fill:#1B1B1B;}
	.st3{fill:#414141;}
	.st4{fill:#393939;}
	.st5{fill:#636363;}
	.st6{fill:#656565;}
	.st7{fill:#7B7B7B;}
	.st8{fill:#FFFFFF;}
</style>
<g id="AF6kwB.tif">
	<g>
		<g>
			<path class="st0" d="M42.5,72.2c-12.8,0-25.6,0-38.4,0.1c-2,0-2.7-0.2-2.6-2.5c0.1-22,0.1-43.9,0-65.9c0-1.7-0.2-2.8,2.3-2.8
				c25.8,0.1,51.6,0.1,77.4,0c2.5,0,2.4,1,2.4,2.7c0,22-0.1,43.9,0,65.9c0,2.2-0.6,2.5-2.6,2.5C68.1,72.2,55.3,72.2,42.5,72.2z"/>
			<path class="st1" d="M11.5,7.1c-0.2-2.9,1.3-4.4,4-4.6c2.2-0.2,4.2,0.9,4.2,3.2c-0.1,3.2-2.9,4.2-5.5,4.6
				C11.9,10.6,11.5,8.9,11.5,7.1z"/>
			<path class="st2" d="M51.3,62.9c1.9-2.5,4-1.6,6.1-0.3c0.7,0.9,1.1,2,1.1,3.2c0,2.6-1.5,3.9-3.9,4.2c-2.4,0.3-2.9-1.6-3.6-3.3
				C50.5,65.3,50.6,64.1,51.3,62.9z"/>
			<path class="st3" d="M58.9,30.8c1.7,0.3,3.4,0.9,3.2,2.7c-0.3,2.2-1.6,4.2-4.2,4.1c-1.8,0-2.6-1.6-2.2-3.2
				C56.1,32.7,56.5,30.7,58.9,30.8z"/>
			<path class="st4" d="M51.3,62.9c0.1,0.8,0.1,1.6,0.3,2.5c0.4,1.8,1,3.7,3.4,3.4c2.1-0.2,2.3-2.1,2.4-3.8c0-0.8,0-1.6,0-2.5
				c3.2,1.7,3.1,4.3,0.9,6.4c-1.6,1.5-4.1,4-6.4,1.5C50.2,68.5,47.6,65.7,51.3,62.9z"/>
			<path class="st5" d="M8.3,10.2c-0.2,2-1.5,3-3.2,3.5c-1.7,0.5-2.6-0.5-2.6-2C2.7,10,3,8.3,5.3,8.3C6.8,8.3,8,8.7,8.3,10.2z"/>
			<path class="st6" d="M23.6,40.2c0.3,0,1.6,0.1,1.7,1.6c0.1,1.9-1.3,3.1-2.8,3.6c-1.5,0.4-1.8-1-2-2.2
				C20.3,41.5,20.5,40.2,23.6,40.2z"/>
			<path class="st7" d="M79.3,22.7c-1.5,0.2-1.7-0.9-1.8-1.9c-0.2-1.6,0.1-3.1,2-3.3c1.2-0.1,2.6,0.3,2.6,1.6
				C82.3,21.1,80.6,21.9,79.3,22.7z"/>
		</g>
	</g>
</g>
<rect x="-3.5" y="6.2" class="st8" width="1" height="1"/>
</svg>
